<?xml version="1.0" encoding="utf-8"?>
<!-- Generator: Adobe Illustrator 16.0.0, SVG Export Plug-In . SVG Version: 6.00 Build 0)  -->
<!DOCTYPE svg PUBLIC "-//W3C//DTD SVG 1.1//EN" "http://www.w3.org/Graphics/SVG/1.1/DTD/svg11.dtd">
<svg version="1.1" id="Layer_1" xmlns="http://www.w3.org/2000/svg" xmlns:xlink="http://www.w3.org/1999/xlink" x="0px" y="0px"
	 width="421px" height="76px" viewBox="0 0 421 76" enable-background="new 0 0 421 76" xml:space="preserve">
<linearGradient id="SVGID_1_" gradientUnits="userSpaceOnUse" x1="107.8262" y1="23.7773" x2="91.7392" y2="51.6408" gradientTransform="matrix(1.0036 -0.0031 0.0031 -1.0066 -0.1958 77.0018)">
	<stop  offset="0" style="stop-color:#39AF8B"/>
	<stop  offset="1" style="stop-color:#267C4F"/>
</linearGradient>
<path fill="url(#SVGID_1_)" d="M103.252,61.516c-2.78,0.272-4.438,0.213-11.515,0.185c-3.205-0.011-5.109-1.81-4.812-8.222
	l0.146-20.43c0,0,19.313-31.936,17.244-28.677l0.115,6.5l1.577,42.346C106.008,53.218,106.722,61.177,103.252,61.516z"/>
<linearGradient id="SVGID_2_" gradientUnits="userSpaceOnUse" x1="69.6108" y1="26.1157" x2="53.6189" y2="53.8146" gradientTransform="matrix(1.0036 -0.0031 0.0031 -1.0066 -0.1958 77.0018)">
	<stop  offset="0" style="stop-color:#39AF8B"/>
	<stop  offset="1" style="stop-color:#267C4F"/>
</linearGradient>
<path fill="url(#SVGID_2_)" d="M65.596,58.864c-2.781,0.272-5.309,2.5-12.384,2.521c-3.541,0.011-4.361-5.215-4.064-11.628
	l0.146-20.429c0,0,19.111-30.354,17.04-27.096l0.394,0.591l1.505,46.674C68.232,49.497,69.063,58.523,65.596,58.864z"/>
<linearGradient id="SVGID_3_" gradientUnits="userSpaceOnUse" x1="50.2705" y1="45.5928" x2="104.1855" y2="45.5928" gradientTransform="matrix(1.0036 -0.0031 0.0031 -1.0066 -0.1958 77.0018)">
	<stop  offset="0" style="stop-color:#39AF8B"/>
	<stop  offset="1" style="stop-color:#6AC185"/>
</linearGradient>
<path fill="url(#SVGID_3_)" d="M69.766,59.577c-1.804,2.839-12.392,2.048-14.892,2.048c-7.754,0-3.67-6.424-1.865-9.264
	L85.756,2.787l0.014-0.022C87.569-0.076,92.082,0,100.582,0c2.235,0,3.334,1.361,3.778,2.741c0.637,1.975-0.159,4.644-1.221,6.315
	L69.766,59.577z"/>
<linearGradient id="SVGID_4_" gradientUnits="userSpaceOnUse" x1="2.4497" y1="38.6396" x2="66.5376" y2="38.6396" gradientTransform="matrix(1.0036 -0.0031 0.0031 -1.0066 -0.1958 77.0018)">
	<stop  offset="0" style="stop-color:#39AF8B"/>
	<stop  offset="1" style="stop-color:#6AC185"/>
</linearGradient>
<path fill="url(#SVGID_4_)" d="M22.722,72.854C20.649,76.111,16.668,75.986,6.624,76c-7.959,0.012-2.961-6.744-0.891-10.003
	L47.472,3.162C49.544-0.097,55.332,0,62.999,0c6.099,0,3.532,6.757,1.461,10.02L22.722,72.854z"/>
<g>
	<path fill="#242D26" d="M144.26,9.666c0-0.55,0.45-1,1-1h9.088c0.55,0,1.15,0.424,1.332,0.943l11.746,33.329
		c0.184,0.52,0.361,0.943,0.396,0.943c0.034,0,0.209-0.426,0.387-0.945l11.447-33.325c0.178-0.52,0.774-0.946,1.324-0.946h8.962
		c0.55,0,1,0.45,1,1v42.982c0,0.55-0.45,1-1,1h-5.497c-0.55,0-1-0.45-1-1V19.935c0-0.55-0.028-1-0.062-1
		c-0.035,0-0.216,0.423-0.402,0.941l-11.797,32.831c-0.186,0.519-0.788,0.941-1.338,0.941h-4.489c-0.55,0-1.152-0.423-1.339-0.941
		l-11.797-32.831c-0.186-0.518-0.366-0.941-0.4-0.941c-0.035,0-0.063,0.45-0.063,1v32.713c0,0.55-0.45,1-1,1h-5.497
		c-0.55,0-1-0.45-1-1L144.26,9.666L144.26,9.666z"/>
	<path fill="none" stroke="#242D25" stroke-width="2" stroke-miterlimit="10" d="M144.26,9.666c0-0.55,0.45-1,1-1h9.088
		c0.55,0,1.15,0.424,1.332,0.943l11.746,33.329c0.184,0.52,0.361,0.943,0.396,0.943c0.034,0,0.209-0.426,0.387-0.945l11.447-33.325
		c0.178-0.52,0.774-0.946,1.324-0.946h8.962c0.55,0,1,0.45,1,1v42.982c0,0.55-0.45,1-1,1h-5.497c-0.55,0-1-0.45-1-1V19.935
		c0-0.55-0.028-1-0.062-1c-0.035,0-0.216,0.423-0.402,0.941l-11.797,32.831c-0.186,0.519-0.788,0.941-1.338,0.941h-4.489
		c-0.55,0-1.152-0.423-1.339-0.941l-11.797-32.831c-0.186-0.518-0.366-0.941-0.4-0.941c-0.035,0-0.063,0.45-0.063,1v32.713
		c0,0.55-0.45,1-1,1h-5.497c-0.55,0-1-0.45-1-1L144.26,9.666L144.26,9.666z"/>
</g>
<g>
	<path fill="#242D26" d="M226.665,45.403c0,0.55,0.035,1.449,0.076,1.997c0,0,0.039,0.515,0.271,0.893
		c0.23,0.378,0.684,0.567,1.354,0.567c0.211,0,0.463,0,0.756,0c0.295,0,0.632-0.041,1.01-0.126v3.977c0,0.55-0.26,1.08-0.578,1.179
		c0,0,0,0-0.398,0.104c-0.399,0.104-0.81,0.199-1.229,0.283c-0.421,0.084-0.841,0.147-1.262,0.188
		c-0.42,0.043-0.776,0.063-1.069,0.063c-1.472,0-2.688-0.294-3.653-0.882c-0.968-0.588-1.598-1.616-1.891-3.088
		c-1.43,1.387-3.182,2.395-5.262,3.024c-2.078,0.63-4.084,0.945-6.016,0.945c-1.472,0-2.877-0.2-4.222-0.599
		c-1.345-0.398-2.531-0.985-3.56-1.764c-1.03-0.777-1.849-1.764-2.457-2.961c-0.609-1.197-0.914-2.593-0.914-4.189
		c0-2.016,0.367-3.653,1.103-4.914c0.734-1.26,1.701-2.246,2.898-2.961c1.197-0.713,2.541-1.229,4.032-1.543
		c1.49-0.314,2.993-0.556,4.504-0.725c1.302-0.252,2.541-0.43,3.717-0.535c1.176-0.104,2.215-0.283,3.119-0.537
		c0.901-0.252,1.615-0.64,2.142-1.166c0.524-0.523,0.788-1.312,0.788-2.361c0-0.923-0.221-1.679-0.662-2.268
		c-0.439-0.587-0.986-1.04-1.639-1.354c-0.65-0.315-1.375-0.524-2.174-0.63c-0.797-0.104-1.554-0.158-2.268-0.158
		c-2.018,0-3.676,0.42-4.979,1.26c-1.301,0.841-2.037,2.142-2.205,3.906h-6.181c-0.55,0-0.927-0.444-0.839-0.987
		c0,0,0.469-2.856,1.351-4.242c0.883-1.386,2.006-2.498,3.371-3.339c1.364-0.84,2.908-1.427,4.63-1.764
		c1.722-0.335,3.486-0.504,5.291-0.504c1.597,0,3.172,0.168,4.727,0.504c1.553,0.337,2.95,0.882,4.189,1.638
		c1.238,0.756,2.236,1.732,2.992,2.93c0.756,1.197,1.133,2.657,1.133,4.378v15.759H226.665z M219.483,38.331
		c0-0.55-0.406-0.809-0.904-0.574c0,0-1.531,0.719-3.127,0.865c-1.598,0.146-3.192,0.368-4.789,0.662
		c-0.756,0.126-1.49,0.305-2.204,0.535s-1.345,0.546-1.89,0.945c-0.547,0.398-0.978,0.924-1.292,1.574
		c-0.315,0.652-0.473,1.439-0.473,2.363c0,0.798,0.23,1.471,0.692,2.016c0.462,0.547,1.019,0.978,1.67,1.293
		c0.65,0.314,1.363,0.535,2.142,0.662c0.778,0.125,1.479,0.188,2.111,0.188c0.797,0,1.657-0.104,2.583-0.315
		c0.923-0.209,1.795-0.566,2.613-1.07s1.502-1.145,2.047-1.922c0.547-0.776,0.82-1.732,0.82-2.867V38.331L219.483,38.331z"/>
	<path fill="none" stroke="#242D25" stroke-width="2" stroke-miterlimit="10" d="M226.665,45.403c0,0.55,0.035,1.449,0.076,1.997
		c0,0,0.039,0.515,0.271,0.893c0.23,0.378,0.684,0.567,1.354,0.567c0.211,0,0.463,0,0.756,0c0.295,0,0.632-0.041,1.01-0.126v3.977
		c0,0.55-0.26,1.08-0.578,1.179c0,0,0,0-0.398,0.104c-0.399,0.104-0.81,0.199-1.229,0.283c-0.421,0.084-0.841,0.147-1.262,0.188
		c-0.42,0.043-0.776,0.063-1.069,0.063c-1.472,0-2.688-0.294-3.653-0.882c-0.968-0.588-1.598-1.616-1.891-3.088
		c-1.43,1.387-3.182,2.395-5.262,3.024c-2.078,0.63-4.084,0.945-6.016,0.945c-1.472,0-2.877-0.2-4.222-0.599
		c-1.345-0.398-2.531-0.985-3.56-1.764c-1.03-0.777-1.849-1.764-2.457-2.961c-0.609-1.197-0.914-2.593-0.914-4.189
		c0-2.016,0.367-3.653,1.103-4.914c0.734-1.26,1.701-2.246,2.898-2.961c1.197-0.713,2.541-1.229,4.032-1.543
		c1.49-0.314,2.993-0.556,4.504-0.725c1.302-0.252,2.541-0.43,3.717-0.535c1.176-0.104,2.215-0.283,3.119-0.537
		c0.901-0.252,1.615-0.64,2.142-1.166c0.524-0.523,0.788-1.312,0.788-2.361c0-0.923-0.221-1.679-0.662-2.268
		c-0.439-0.587-0.986-1.04-1.639-1.354c-0.65-0.315-1.375-0.524-2.174-0.63c-0.797-0.104-1.554-0.158-2.268-0.158
		c-2.018,0-3.676,0.42-4.979,1.26c-1.301,0.841-2.037,2.142-2.205,3.906h-6.181c-0.55,0-0.927-0.444-0.839-0.987
		c0,0,0.469-2.856,1.351-4.242c0.883-1.386,2.006-2.498,3.371-3.339c1.364-0.84,2.908-1.427,4.63-1.764
		c1.722-0.335,3.486-0.504,5.291-0.504c1.597,0,3.172,0.168,4.727,0.504c1.553,0.337,2.95,0.882,4.189,1.638
		c1.238,0.756,2.236,1.732,2.992,2.93c0.756,1.197,1.133,2.657,1.133,4.378v15.759H226.665z M219.483,38.331
		c0-0.55-0.406-0.809-0.904-0.574c0,0-1.531,0.719-3.127,0.865c-1.598,0.146-3.192,0.368-4.789,0.662
		c-0.756,0.126-1.49,0.305-2.204,0.535s-1.345,0.546-1.89,0.945c-0.547,0.398-0.978,0.924-1.292,1.574
		c-0.315,0.652-0.473,1.439-0.473,2.363c0,0.798,0.23,1.471,0.692,2.016c0.462,0.547,1.019,0.978,1.67,1.293
		c0.65,0.314,1.363,0.535,2.142,0.662c0.778,0.125,1.479,0.188,2.111,0.188c0.797,0,1.657-0.104,2.583-0.315
		c0.923-0.209,1.795-0.566,2.613-1.07s1.502-1.145,2.047-1.922c0.547-0.776,0.82-1.732,0.82-2.867V38.331L219.483,38.331z"/>
</g>
<g>
	<path fill="#242D26" d="M234.604,9.666c0-0.55,0.45-1,1-1h5.184c0.55,0,1,0.45,1,1v4.804c0,0.55-0.45,1-1,1h-5.184
		c-0.55,0-1-0.45-1-1V9.666z M234.604,22.077c0-0.55,0.45-1,1-1h5.184c0.55,0,1,0.45,1,1v30.571c0,0.55-0.45,1-1,1h-5.184
		c-0.55,0-1-0.45-1-1V22.077z"/>
	<path fill="none" stroke="#242D25" stroke-width="2" stroke-miterlimit="10" d="M234.604,9.666c0-0.55,0.45-1,1-1h5.184
		c0.55,0,1,0.45,1,1v4.804c0,0.55-0.45,1-1,1h-5.184c-0.55,0-1-0.45-1-1V9.666z M234.604,22.077c0-0.55,0.45-1,1-1h5.184
		c0.55,0,1,0.45,1,1v30.571c0,0.55-0.45,1-1,1h-5.184c-0.55,0-1-0.45-1-1V22.077z"/>
</g>
<g>
	<path fill="#242D26" d="M249.79,9.666c0-0.55,0.451-1,1-1h5.184c0.551,0,1,0.45,1,1v42.982c0,0.55-0.449,1-1,1h-5.184
		c-0.549,0-1-0.45-1-1V9.666z"/>
	<path fill="none" stroke="#242D25" stroke-width="2" stroke-miterlimit="10" d="M249.79,9.666c0-0.55,0.451-1,1-1h5.184
		c0.551,0,1,0.45,1,1v42.982c0,0.55-0.449,1-1,1h-5.184c-0.549,0-1-0.45-1-1V9.666z"/>
</g>
<g>
	<path fill="#242D26" d="M270.463,38.654c0.55,0,1.041,0.448,1.092,0.996c0,0,0.201,2.196,0.79,3.415
		c0.588,1.219,1.406,2.216,2.457,2.992c1.05,0.777,2.257,1.345,3.622,1.701c1.365,0.357,2.846,0.536,4.441,0.536
		c1.723,0,3.191-0.198,4.41-0.599c1.217-0.398,2.205-0.914,2.961-1.543c0.756-0.63,1.301-1.354,1.639-2.174
		c0.336-0.818,0.504-1.647,0.504-2.488c0-1.723-0.389-2.992-1.166-3.812c-0.777-0.818-1.628-1.396-2.551-1.731
		c-1.598-0.587-3.455-1.144-5.576-1.669c-2.121-0.524-4.734-1.207-7.844-2.047c-1.932-0.504-3.539-1.166-4.819-1.984
		c-1.281-0.819-2.299-1.733-3.056-2.741c-0.756-1.008-1.291-2.079-1.605-3.213c-0.314-1.134-0.473-2.289-0.473-3.465
		c0-2.268,0.473-4.23,1.417-5.89c0.944-1.659,2.194-3.034,3.749-4.126c1.553-1.092,3.316-1.9,5.291-2.426
		c1.975-0.524,3.97-0.788,5.984-0.788c2.353,0,4.567,0.305,6.646,0.914s3.906,1.523,5.48,2.741c1.575,1.219,2.824,2.72,3.748,4.504
		c0.924,1.786,1.387,3.854,1.387,6.206h-6.875c-0.549,0-1.104-0.438-1.234-0.972c0,0-0.962-3.973-2.727-5.17
		c-1.765-1.197-4.012-1.795-6.74-1.795c-0.926,0-1.869,0.094-2.836,0.284c-0.967,0.189-1.848,0.504-2.645,0.945
		c-0.798,0.441-1.461,1.04-1.984,1.795c-0.525,0.756-0.787,1.701-0.787,2.835c0,1.597,0.492,2.846,1.48,3.749
		c0.985,0.904,2.276,1.586,3.873,2.047c0.168,0.042,0.829,0.221,1.984,0.536c1.154,0.315,2.445,0.662,3.875,1.04
		c1.427,0.378,2.824,0.746,4.189,1.103c1.363,0.357,2.34,0.62,2.93,0.788c1.47,0.462,2.75,1.092,3.843,1.89
		c1.092,0.798,2.005,1.712,2.739,2.741c0.734,1.03,1.281,2.132,1.64,3.308c0.354,1.176,0.535,2.354,0.535,3.528
		c0,2.521-0.515,4.673-1.544,6.458c-1.029,1.786-2.385,3.245-4.062,4.378c-1.681,1.134-3.592,1.964-5.732,2.489
		c-2.143,0.523-4.326,0.787-6.553,0.787c-2.562,0-4.978-0.315-7.244-0.945c-2.27-0.63-4.243-1.596-5.924-2.898
		c-1.68-1.301-3.022-2.971-4.031-5.008c-1.008-2.037-1.533-4.441-1.574-7.214h6.875V38.654z"/>
	<path fill="none" stroke="#242D25" stroke-width="2" stroke-miterlimit="10" d="M270.463,38.654c0.55,0,1.041,0.448,1.092,0.996
		c0,0,0.201,2.196,0.79,3.415c0.588,1.219,1.406,2.216,2.457,2.992c1.05,0.777,2.257,1.345,3.622,1.701
		c1.365,0.357,2.846,0.536,4.441,0.536c1.723,0,3.191-0.198,4.41-0.599c1.217-0.398,2.205-0.914,2.961-1.543
		c0.756-0.63,1.301-1.354,1.639-2.174c0.336-0.818,0.504-1.647,0.504-2.488c0-1.723-0.389-2.992-1.166-3.812
		c-0.777-0.818-1.628-1.396-2.551-1.731c-1.598-0.587-3.455-1.144-5.576-1.669c-2.121-0.524-4.734-1.207-7.844-2.047
		c-1.932-0.504-3.539-1.166-4.819-1.984c-1.281-0.819-2.299-1.733-3.056-2.741c-0.756-1.008-1.291-2.079-1.605-3.213
		c-0.314-1.134-0.473-2.289-0.473-3.465c0-2.268,0.473-4.23,1.417-5.89c0.944-1.659,2.194-3.034,3.749-4.126
		c1.553-1.092,3.316-1.9,5.291-2.426c1.975-0.524,3.97-0.788,5.984-0.788c2.353,0,4.567,0.305,6.646,0.914s3.906,1.523,5.48,2.741
		c1.575,1.219,2.824,2.72,3.748,4.504c0.924,1.786,1.387,3.854,1.387,6.206h-6.875c-0.549,0-1.104-0.438-1.234-0.972
		c0,0-0.962-3.973-2.727-5.17c-1.765-1.197-4.012-1.795-6.74-1.795c-0.926,0-1.869,0.094-2.836,0.284
		c-0.967,0.189-1.848,0.504-2.645,0.945c-0.798,0.441-1.461,1.04-1.984,1.795c-0.525,0.756-0.787,1.701-0.787,2.835
		c0,1.597,0.492,2.846,1.48,3.749c0.985,0.904,2.276,1.586,3.873,2.047c0.168,0.042,0.829,0.221,1.984,0.536
		c1.154,0.315,2.445,0.662,3.875,1.04c1.427,0.378,2.824,0.746,4.189,1.103c1.363,0.357,2.34,0.62,2.93,0.788
		c1.47,0.462,2.75,1.092,3.843,1.89c1.092,0.798,2.005,1.712,2.739,2.741c0.734,1.03,1.281,2.132,1.64,3.308
		c0.354,1.176,0.535,2.354,0.535,3.528c0,2.521-0.515,4.673-1.544,6.458c-1.029,1.786-2.385,3.245-4.062,4.378
		c-1.681,1.134-3.592,1.964-5.732,2.489c-2.143,0.523-4.326,0.787-6.553,0.787c-2.562,0-4.978-0.315-7.244-0.945
		c-2.27-0.63-4.243-1.596-5.924-2.898c-1.68-1.301-3.022-2.971-4.031-5.008c-1.008-2.037-1.533-4.441-1.574-7.214h6.875V38.654z"/>
</g>
<g>
	<path fill="#242D26" d="M307.302,9.666c0-0.55,0.45-1,1-1h5.183c0.551,0,1,0.45,1,1v42.982c0,0.55-0.449,1-1,1h-5.183
		c-0.55,0-1-0.45-1-1V9.666z"/>
	<path fill="none" stroke="#242D25" stroke-width="2" stroke-miterlimit="10" d="M307.302,9.666c0-0.55,0.45-1,1-1h5.183
		c0.551,0,1,0.45,1,1v42.982c0,0.55-0.449,1-1,1h-5.183c-0.55,0-1-0.45-1-1V9.666z"/>
</g>
<g>
	<path fill="#242D26" d="M351.899,52.648c0,0.55-0.449,1-1,1h-5.056c-0.55,0-1-0.45-1-1v-2.536c0-0.551-0.028-1-0.062-1
		c-0.035,0-0.332,0.361-0.66,0.802c0,0-1.6,2.149-3.342,3.136c-1.742,0.985-3.519,1.479-5.322,1.479
		c-4.284,0-7.383-1.06-9.293-3.181c-1.912-2.121-2.866-5.324-2.866-9.608V22.077c0-0.55,0.45-1,1-1h5.183c0.549,0,1,0.45,1,1v17.971
		c0,0.551,0.049,1.447,0.11,1.994c0,0,0.435,3.879,1.526,5.055c1.092,1.177,2.625,1.765,4.6,1.765c1.512,0,2.771-0.229,3.779-0.693
		c1.009-0.462,1.826-1.081,2.457-1.858c0.631-0.776,1.08-1.711,1.354-2.803c0.273-1.093,0.41-2.269,0.41-3.529V22.078
		c0-0.55,0.45-1,1-1h5.182c0.551,0,1,0.45,1,1V52.648z"/>
	<path fill="none" stroke="#242D25" stroke-width="2" stroke-miterlimit="10" d="M351.899,52.648c0,0.55-0.449,1-1,1h-5.056
		c-0.55,0-1-0.45-1-1v-2.536c0-0.551-0.028-1-0.062-1c-0.035,0-0.332,0.361-0.66,0.802c0,0-1.6,2.149-3.342,3.136
		c-1.742,0.985-3.519,1.479-5.322,1.479c-4.284,0-7.383-1.06-9.293-3.181c-1.912-2.121-2.866-5.324-2.866-9.608V22.077
		c0-0.55,0.45-1,1-1h5.183c0.549,0,1,0.45,1,1v17.971c0,0.551,0.049,1.447,0.11,1.994c0,0,0.435,3.879,1.526,5.055
		c1.092,1.177,2.625,1.765,4.6,1.765c1.512,0,2.771-0.229,3.779-0.693c1.009-0.462,1.826-1.081,2.457-1.858
		c0.631-0.776,1.08-1.711,1.354-2.803c0.273-1.093,0.41-2.269,0.41-3.529V22.078c0-0.55,0.45-1,1-1h5.182c0.551,0,1,0.45,1,1V52.648
		z"/>
</g>
<g>
	<path fill="#242D26" d="M360.46,22.077c0-0.55,0.45-1,1-1h4.741c0.55,0,1,0.45,1,1v4.3c0,0.55,0.027,1,0.062,1
		c0.035,0,0.216-0.424,0.397-0.942c0,0,0.285-0.8,0.895-1.641c0.607-0.84,1.344-1.606,2.204-2.299s1.815-1.25,2.867-1.67
		c1.049-0.419,2.12-0.63,3.213-0.63c0.84,0,1.417,0.022,1.731,0.063c0.314,0.042,0.641,0.085,0.978,0.126v5.93
		c0,0.55-0.444,0.931-0.987,0.847c0,0-0.031-0.005-0.557-0.068s-1.039-0.094-1.543-0.094c-1.219,0-2.362,0.242-3.434,0.725
		c-1.072,0.483-2.006,1.197-2.805,2.142c-0.798,0.945-1.429,2.111-1.89,3.497c-0.464,1.386-0.693,2.983-0.693,4.788v14.498
		c0,0.55-0.45,1-1,1h-5.182c-0.55,0-1-0.45-1-1V22.077H360.46z"/>
	<path fill="none" stroke="#242D25" stroke-width="2" stroke-miterlimit="10" d="M360.46,22.077c0-0.55,0.45-1,1-1h4.741
		c0.55,0,1,0.45,1,1v4.3c0,0.55,0.027,1,0.062,1c0.035,0,0.216-0.424,0.397-0.942c0,0,0.285-0.8,0.895-1.641
		c0.607-0.84,1.344-1.606,2.204-2.299s1.815-1.25,2.867-1.67c1.049-0.419,2.12-0.63,3.213-0.63c0.84,0,1.417,0.022,1.731,0.063
		c0.314,0.042,0.641,0.085,0.978,0.126v5.93c0,0.55-0.444,0.931-0.987,0.847c0,0-0.031-0.005-0.557-0.068s-1.039-0.094-1.543-0.094
		c-1.219,0-2.362,0.242-3.434,0.725c-1.072,0.483-2.006,1.197-2.805,2.142c-0.798,0.945-1.429,2.111-1.89,3.497
		c-0.464,1.386-0.693,2.983-0.693,4.788v14.498c0,0.55-0.45,1-1,1h-5.182c-0.55,0-1-0.45-1-1V22.077H360.46z"/>
</g>
<g>
	<path fill="#242D26" d="M383.825,21.889c0-0.55,0.451-1,1-1h4.806c0.55,0,1,0.45,1,1v2.41c0,0.55,0.028,1,0.063,1
		c0.033,0,0.332-0.361,0.659-0.802c0,0,1.816-2.442,3.623-3.261c1.806-0.819,3.759-1.229,5.858-1.229
		c2.562,0,4.798,0.452,6.71,1.354c1.911,0.904,3.495,2.142,4.757,3.717c1.26,1.575,2.205,3.413,2.834,5.512
		c0.631,2.101,0.945,4.346,0.945,6.741c0,2.184-0.283,4.307-0.852,6.363c-0.566,2.059-1.428,3.875-2.582,5.449
		c-1.156,1.576-2.615,2.836-4.379,3.781c-1.764,0.944-3.843,1.416-6.236,1.416c-1.051,0-2.102-0.094-3.149-0.283
		c-1.052-0.188-2.06-0.494-3.024-0.914c-0.967-0.418-1.857-0.955-2.678-1.605c-0.818-0.65-1.502-1.417-2.047-2.3l0,0
		c-0.068,0-0.126,0.45-0.126,1v17.257c0,0.55-0.45,1-1,1h-5.183c-0.551,0-1-0.45-1-1V21.889L383.825,21.889z M408.899,37.205
		c0-1.47-0.188-2.897-0.566-4.284c-0.379-1.386-0.944-2.614-1.7-3.686c-0.757-1.071-1.701-1.931-2.835-2.583
		c-1.135-0.65-2.438-0.977-3.906-0.977c-3.023,0-5.303,1.05-6.836,3.15c-1.533,2.101-2.299,4.893-2.299,8.379
		c0,1.639,0.197,3.161,0.598,4.566c0.399,1.408,0.998,2.615,1.797,3.623c0.797,1.009,1.752,1.807,2.865,2.395
		c1.112,0.588,2.404,0.882,3.875,0.882c1.639,0,3.023-0.335,4.158-1.008c1.134-0.671,2.066-1.543,2.803-2.614
		c0.734-1.072,1.262-2.289,1.575-3.654C408.743,40.031,408.899,38.634,408.899,37.205z"/>
	<path fill="none" stroke="#242D25" stroke-width="2" stroke-miterlimit="10" d="M383.825,21.889c0-0.55,0.451-1,1-1h4.806
		c0.55,0,1,0.45,1,1v2.41c0,0.55,0.028,1,0.063,1c0.033,0,0.332-0.361,0.659-0.802c0,0,1.816-2.442,3.623-3.261
		c1.806-0.819,3.759-1.229,5.858-1.229c2.562,0,4.798,0.452,6.71,1.354c1.911,0.904,3.495,2.142,4.757,3.717
		c1.26,1.575,2.205,3.413,2.834,5.512c0.631,2.101,0.945,4.346,0.945,6.741c0,2.184-0.283,4.307-0.852,6.363
		c-0.566,2.059-1.428,3.875-2.582,5.449c-1.156,1.576-2.615,2.836-4.379,3.781c-1.764,0.944-3.843,1.416-6.236,1.416
		c-1.051,0-2.102-0.094-3.149-0.283c-1.052-0.188-2.06-0.494-3.024-0.914c-0.967-0.418-1.857-0.955-2.678-1.605
		c-0.818-0.65-1.502-1.417-2.047-2.3l0,0c-0.068,0-0.126,0.45-0.126,1v17.257c0,0.55-0.45,1-1,1h-5.183c-0.551,0-1-0.45-1-1V21.889
		L383.825,21.889z M408.899,37.205c0-1.47-0.188-2.897-0.566-4.284c-0.379-1.386-0.944-2.614-1.7-3.686
		c-0.757-1.071-1.701-1.931-2.835-2.583c-1.135-0.65-2.438-0.977-3.906-0.977c-3.023,0-5.303,1.05-6.836,3.15
		c-1.533,2.101-2.299,4.893-2.299,8.379c0,1.639,0.197,3.161,0.598,4.566c0.399,1.408,0.998,2.615,1.797,3.623
		c0.797,1.009,1.752,1.807,2.865,2.395c1.112,0.588,2.404,0.882,3.875,0.882c1.639,0,3.023-0.335,4.158-1.008
		c1.134-0.671,2.066-1.543,2.803-2.614c0.734-1.072,1.262-2.289,1.575-3.654C408.743,40.031,408.899,38.634,408.899,37.205z"/>
</g>
</svg>
