<?xml version="1.0" encoding="utf-8"?>
<!-- Generator: Adobe Illustrator 16.0.0, SVG Export Plug-In . SVG Version: 6.00 Build 0)  -->
<!DOCTYPE svg PUBLIC "-//W3C//DTD SVG 1.1//EN" "http://www.w3.org/Graphics/SVG/1.1/DTD/svg11.dtd">
<svg version="1.1" xmlns="http://www.w3.org/2000/svg" xmlns:xlink="http://www.w3.org/1999/xlink" x="0px" y="0px"
	 width="432.999px" height="76px" viewBox="0 0 432.999 76" enable-background="new 0 0 432.999 76" xml:space="preserve">
<g id="Layer_1">
	
		<linearGradient id="SVGID_1_" gradientUnits="userSpaceOnUse" x1="107.7568" y1="53.0151" x2="91.6697" y2="25.1514" gradientTransform="matrix(1.0036 -0.0031 -0.0031 1.0066 0.1099 -0.2953)">
		<stop  offset="0" style="stop-color:#39AF8B"/>
		<stop  offset="1" style="stop-color:#267C4F"/>
	</linearGradient>
	<path fill="url(#SVGID_1_)" d="M103.252,61.516c-2.78,0.272-4.438,0.213-11.515,0.184c-3.205-0.011-5.109-1.809-4.812-8.222
		l0.146-20.429c0,0,19.313-31.936,17.244-28.677l0.115,6.5l1.577,42.346C106.008,53.218,106.722,61.177,103.252,61.516z"/>
	
		<linearGradient id="SVGID_2_" gradientUnits="userSpaceOnUse" x1="69.54" y1="50.6753" x2="53.548" y2="22.9763" gradientTransform="matrix(1.0036 -0.0031 -0.0031 1.0066 0.1099 -0.2953)">
		<stop  offset="0" style="stop-color:#39AF8B"/>
		<stop  offset="1" style="stop-color:#267C4F"/>
	</linearGradient>
	<path fill="url(#SVGID_2_)" d="M65.596,58.864c-2.781,0.273-5.309,2.5-12.384,2.522c-3.541,0.011-4.361-5.215-4.064-11.628
		l0.146-20.429c0,0,19.111-30.354,17.04-27.096l0.394,0.591l1.505,46.674C68.232,49.497,69.063,58.524,65.596,58.864z"/>
	
		<linearGradient id="SVGID_3_" gradientUnits="userSpaceOnUse" x1="50.2012" y1="31.1992" x2="104.1152" y2="31.1992" gradientTransform="matrix(1.0036 -0.0031 -0.0031 1.0066 0.1099 -0.2953)">
		<stop  offset="0" style="stop-color:#39AF8B"/>
		<stop  offset="1" style="stop-color:#6AC185"/>
	</linearGradient>
	<path fill="url(#SVGID_3_)" d="M69.766,59.577c-1.804,2.839-12.392,2.048-14.892,2.048c-7.754,0-3.67-6.424-1.865-9.264
		L85.756,2.787l0.014-0.022C87.569-0.076,92.082,0,100.582,0c2.235,0,3.334,1.361,3.778,2.741c0.637,1.975-0.159,4.644-1.221,6.315
		L69.766,59.577z"/>
	
		<linearGradient id="SVGID_4_" gradientUnits="userSpaceOnUse" x1="2.3828" y1="38.1528" x2="66.4678" y2="38.1528" gradientTransform="matrix(1.0036 -0.0031 -0.0031 1.0066 0.1099 -0.2953)">
		<stop  offset="0" style="stop-color:#39AF8B"/>
		<stop  offset="1" style="stop-color:#6AC185"/>
	</linearGradient>
	<path fill="url(#SVGID_4_)" d="M22.722,72.853C20.649,76.112,16.668,75.987,6.624,76c-7.959,0.012-2.961-6.744-0.891-10.003
		L47.472,3.162C49.544-0.097,55.332,0,62.999,0c6.099,0,3.532,6.757,1.461,10.02L22.722,72.853z"/>
	<g>
		<path fill="#242D26" d="M155.271,16.673c0-0.55,0.45-1,1-1h9.088c0.55,0,1.15,0.424,1.332,0.943l11.746,33.33
			c0.184,0.519,0.361,0.943,0.396,0.943c0.034,0,0.209-0.426,0.387-0.946l11.447-33.325c0.178-0.52,0.774-0.946,1.324-0.946h8.962
			c0.55,0,1,0.45,1,1v42.982c0,0.55-0.45,1-1,1h-5.497c-0.55,0-1-0.45-1-1V26.942c0-0.55-0.028-1-0.062-1
			c-0.035,0-0.216,0.423-0.402,0.941l-11.797,32.831c-0.186,0.518-0.788,0.941-1.338,0.941h-4.489c-0.55,0-1.152-0.423-1.339-0.941
			l-11.797-32.831c-0.186-0.518-0.366-0.941-0.4-0.941c-0.035,0-0.063,0.45-0.063,1v32.713c0,0.55-0.45,1-1,1h-5.497
			c-0.55,0-1-0.45-1-1V16.673z"/>
		<path fill="none" stroke="#242D25" stroke-width="2" stroke-miterlimit="10" d="M155.271,16.673c0-0.55,0.45-1,1-1h9.088
			c0.55,0,1.15,0.424,1.332,0.943l11.746,33.33c0.184,0.519,0.361,0.943,0.396,0.943c0.034,0,0.209-0.426,0.387-0.946l11.447-33.325
			c0.178-0.52,0.774-0.946,1.324-0.946h8.962c0.55,0,1,0.45,1,1v42.982c0,0.55-0.45,1-1,1h-5.497c-0.55,0-1-0.45-1-1V26.942
			c0-0.55-0.028-1-0.062-1c-0.035,0-0.216,0.423-0.402,0.941l-11.797,32.831c-0.186,0.518-0.788,0.941-1.338,0.941h-4.489
			c-0.55,0-1.152-0.423-1.339-0.941l-11.797-32.831c-0.186-0.518-0.366-0.941-0.4-0.941c-0.035,0-0.063,0.45-0.063,1v32.713
			c0,0.55-0.45,1-1,1h-5.497c-0.55,0-1-0.45-1-1V16.673z"/>
	</g>
	<g>
		<path fill="#242D26" d="M237.676,52.41c0,0.55,0.034,1.449,0.076,1.997c0,0,0.039,0.515,0.271,0.893
			c0.23,0.378,0.683,0.567,1.354,0.567c0.21,0,0.462,0,0.756,0s0.631-0.041,1.009-0.126v3.977c0,0.55-0.26,1.08-0.578,1.178
			c0,0,0,0-0.398,0.105c-0.4,0.104-0.81,0.199-1.229,0.283c-0.421,0.084-0.841,0.147-1.261,0.189
			c-0.42,0.042-0.777,0.063-1.07,0.063c-1.471,0-2.688-0.294-3.654-0.882c-0.967-0.588-1.597-1.616-1.89-3.087
			c-1.429,1.386-3.182,2.394-5.261,3.024s-4.085,0.945-6.017,0.945c-1.471,0-2.877-0.2-4.221-0.598
			c-1.345-0.399-2.531-0.986-3.56-1.764c-1.03-0.777-1.849-1.764-2.457-2.961c-0.609-1.197-0.914-2.593-0.914-4.189
			c0-2.016,0.367-3.654,1.103-4.914c0.734-1.26,1.701-2.247,2.898-2.961c1.197-0.714,2.541-1.229,4.032-1.543
			c1.49-0.315,2.992-0.556,4.504-0.725c1.302-0.252,2.541-0.43,3.717-0.536c1.176-0.104,2.215-0.283,3.119-0.536
			c0.902-0.252,1.616-0.64,2.142-1.166c0.524-0.524,0.788-1.312,0.788-2.362c0-0.923-0.221-1.679-0.662-2.268
			c-0.44-0.587-0.987-1.04-1.638-1.354c-0.651-0.315-1.376-0.524-2.174-0.63c-0.798-0.104-1.554-0.158-2.268-0.158
			c-2.017,0-3.676,0.42-4.978,1.26c-1.302,0.841-2.037,2.142-2.205,3.906h-6.182c-0.55,0-0.927-0.444-0.839-0.987
			c0,0,0.469-2.856,1.351-4.242c0.883-1.386,2.006-2.498,3.371-3.339c1.364-0.84,2.907-1.427,4.63-1.764
			c1.722-0.335,3.486-0.504,5.292-0.504c1.596,0,3.171,0.168,4.726,0.504c1.553,0.337,2.95,0.882,4.189,1.638
			c1.238,0.756,2.236,1.732,2.992,2.93c0.756,1.197,1.134,2.657,1.134,4.378V52.41z M230.494,45.338c0-0.55-0.407-0.809-0.905-0.575
			c0,0-1.531,0.719-3.127,0.866c-1.597,0.147-3.192,0.368-4.788,0.662c-0.756,0.126-1.491,0.305-2.205,0.535
			c-0.714,0.231-1.344,0.546-1.89,0.945c-0.546,0.399-0.977,0.924-1.291,1.575c-0.315,0.652-0.473,1.439-0.473,2.363
			c0,0.798,0.23,1.47,0.692,2.016c0.462,0.546,1.019,0.977,1.67,1.292c0.65,0.315,1.364,0.536,2.142,0.662s1.48,0.189,2.111,0.189
			c0.797,0,1.658-0.104,2.583-0.315c0.923-0.209,1.795-0.567,2.614-1.071c0.818-0.504,1.501-1.144,2.047-1.922
			c0.546-0.776,0.819-1.732,0.819-2.866V45.338z"/>
		<path fill="none" stroke="#242D25" stroke-width="2" stroke-miterlimit="10" d="M237.676,52.41c0,0.55,0.034,1.449,0.076,1.997
			c0,0,0.039,0.515,0.271,0.893c0.23,0.378,0.683,0.567,1.354,0.567c0.21,0,0.462,0,0.756,0s0.631-0.041,1.009-0.126v3.977
			c0,0.55-0.26,1.08-0.578,1.178c0,0,0,0-0.398,0.105c-0.4,0.104-0.81,0.199-1.229,0.283c-0.421,0.084-0.841,0.147-1.261,0.189
			c-0.42,0.042-0.777,0.063-1.07,0.063c-1.471,0-2.688-0.294-3.654-0.882c-0.967-0.588-1.597-1.616-1.89-3.087
			c-1.429,1.386-3.182,2.394-5.261,3.024s-4.085,0.945-6.017,0.945c-1.471,0-2.877-0.2-4.221-0.598
			c-1.345-0.399-2.531-0.986-3.56-1.764c-1.03-0.777-1.849-1.764-2.457-2.961c-0.609-1.197-0.914-2.593-0.914-4.189
			c0-2.016,0.367-3.654,1.103-4.914c0.734-1.26,1.701-2.247,2.898-2.961c1.197-0.714,2.541-1.229,4.032-1.543
			c1.49-0.315,2.992-0.556,4.504-0.725c1.302-0.252,2.541-0.43,3.717-0.536c1.176-0.104,2.215-0.283,3.119-0.536
			c0.902-0.252,1.616-0.64,2.142-1.166c0.524-0.524,0.788-1.312,0.788-2.362c0-0.923-0.221-1.679-0.662-2.268
			c-0.44-0.587-0.987-1.04-1.638-1.354c-0.651-0.315-1.376-0.524-2.174-0.63c-0.798-0.104-1.554-0.158-2.268-0.158
			c-2.017,0-3.676,0.42-4.978,1.26c-1.302,0.841-2.037,2.142-2.205,3.906h-6.182c-0.55,0-0.927-0.444-0.839-0.987
			c0,0,0.469-2.856,1.351-4.242c0.883-1.386,2.006-2.498,3.371-3.339c1.364-0.84,2.907-1.427,4.63-1.764
			c1.722-0.335,3.486-0.504,5.292-0.504c1.596,0,3.171,0.168,4.726,0.504c1.553,0.337,2.95,0.882,4.189,1.638
			c1.238,0.756,2.236,1.732,2.992,2.93c0.756,1.197,1.134,2.657,1.134,4.378V52.41z M230.494,45.338c0-0.55-0.407-0.809-0.905-0.575
			c0,0-1.531,0.719-3.127,0.866c-1.597,0.147-3.192,0.368-4.788,0.662c-0.756,0.126-1.491,0.305-2.205,0.535
			c-0.714,0.231-1.344,0.546-1.89,0.945c-0.546,0.399-0.977,0.924-1.291,1.575c-0.315,0.652-0.473,1.439-0.473,2.363
			c0,0.798,0.23,1.47,0.692,2.016c0.462,0.546,1.019,0.977,1.67,1.292c0.65,0.315,1.364,0.536,2.142,0.662s1.48,0.189,2.111,0.189
			c0.797,0,1.658-0.104,2.583-0.315c0.923-0.209,1.795-0.567,2.614-1.071c0.818-0.504,1.501-1.144,2.047-1.922
			c0.546-0.776,0.819-1.732,0.819-2.866V45.338z"/>
	</g>
	<g>
		<path fill="#242D26" d="M245.615,16.673c0-0.55,0.45-1,1-1h5.183c0.55,0,1,0.45,1,1v4.804c0,0.55-0.45,1-1,1h-5.183
			c-0.55,0-1-0.45-1-1V16.673z M245.615,29.084c0-0.55,0.45-1,1-1h5.183c0.55,0,1,0.45,1,1v30.571c0,0.55-0.45,1-1,1h-5.183
			c-0.55,0-1-0.45-1-1V29.084z"/>
		<path fill="none" stroke="#242D25" stroke-width="2" stroke-miterlimit="10" d="M245.615,16.673c0-0.55,0.45-1,1-1h5.183
			c0.55,0,1,0.45,1,1v4.804c0,0.55-0.45,1-1,1h-5.183c-0.55,0-1-0.45-1-1V16.673z M245.615,29.084c0-0.55,0.45-1,1-1h5.183
			c0.55,0,1,0.45,1,1v30.571c0,0.55-0.45,1-1,1h-5.183c-0.55,0-1-0.45-1-1V29.084z"/>
	</g>
	<g>
		<path fill="#242D26" d="M260.801,16.673c0-0.55,0.45-1,1-1h5.183c0.55,0,1,0.45,1,1v42.982c0,0.55-0.45,1-1,1h-5.183
			c-0.55,0-1-0.45-1-1V16.673z"/>
		<path fill="none" stroke="#242D25" stroke-width="2" stroke-miterlimit="10" d="M260.801,16.673c0-0.55,0.45-1,1-1h5.183
			c0.55,0,1,0.45,1,1v42.982c0,0.55-0.45,1-1,1h-5.183c-0.55,0-1-0.45-1-1V16.673z"/>
	</g>
	<g>
		<path fill="#242D26" d="M281.474,45.661c0.55,0,1.041,0.448,1.092,0.996c0,0,0.201,2.197,0.79,3.415
			c0.588,1.219,1.406,2.216,2.457,2.993c1.05,0.777,2.257,1.344,3.622,1.701c1.365,0.357,2.846,0.536,4.442,0.536
			c1.722,0,3.191-0.199,4.409-0.599c1.218-0.398,2.205-0.914,2.961-1.543c0.757-0.63,1.302-1.354,1.639-2.173
			c0.336-0.819,0.504-1.648,0.504-2.489c0-1.722-0.389-2.992-1.166-3.812c-0.777-0.819-1.628-1.396-2.551-1.732
			c-1.597-0.587-3.455-1.144-5.576-1.669c-2.121-0.524-4.735-1.207-7.843-2.047c-1.933-0.504-3.539-1.166-4.82-1.984
			c-1.281-0.819-2.299-1.733-3.055-2.741c-0.757-1.008-1.292-2.079-1.606-3.213c-0.315-1.134-0.473-2.289-0.473-3.465
			c0-2.268,0.473-4.23,1.417-5.89c0.945-1.659,2.194-3.034,3.749-4.126c1.553-1.092,3.317-1.9,5.292-2.426
			c1.974-0.524,3.969-0.788,5.984-0.788c2.352,0,4.567,0.305,6.646,0.914c2.079,0.609,3.906,1.523,5.481,2.741
			c1.575,1.219,2.824,2.72,3.748,4.504c0.924,1.786,1.387,3.854,1.387,6.206h-6.875c-0.55,0-1.105-0.438-1.235-0.972
			c0,0-0.962-3.973-2.726-5.17c-1.765-1.197-4.012-1.795-6.741-1.795c-0.925,0-1.869,0.094-2.835,0.284
			c-0.967,0.189-1.849,0.504-2.646,0.945s-1.46,1.04-1.984,1.795c-0.525,0.756-0.787,1.701-0.787,2.835
			c0,1.597,0.493,2.846,1.48,3.749c0.986,0.904,2.277,1.586,3.874,2.047c0.168,0.042,0.829,0.221,1.984,0.536
			s2.446,0.662,3.875,1.04c1.427,0.378,2.824,0.746,4.189,1.103c1.364,0.357,2.341,0.62,2.93,0.788
			c1.47,0.462,2.75,1.092,3.843,1.89c1.092,0.798,2.005,1.712,2.74,2.741c0.734,1.03,1.281,2.132,1.639,3.308
			c0.355,1.176,0.535,2.353,0.535,3.528c0,2.52-0.515,4.673-1.544,6.458c-1.029,1.786-2.384,3.245-4.063,4.378
			c-1.68,1.134-3.591,1.964-5.732,2.489c-2.143,0.524-4.326,0.787-6.553,0.787c-2.562,0-4.977-0.315-7.244-0.945
			c-2.269-0.63-4.243-1.596-5.923-2.898c-1.68-1.301-3.023-2.971-4.031-5.008c-1.008-2.037-1.534-4.442-1.575-7.214H281.474z"/>
		<path fill="none" stroke="#242D25" stroke-width="2" stroke-miterlimit="10" d="M281.474,45.661c0.55,0,1.041,0.448,1.092,0.996
			c0,0,0.201,2.197,0.79,3.415c0.588,1.219,1.406,2.216,2.457,2.993c1.05,0.777,2.257,1.344,3.622,1.701
			c1.365,0.357,2.846,0.536,4.442,0.536c1.722,0,3.191-0.199,4.409-0.599c1.218-0.398,2.205-0.914,2.961-1.543
			c0.757-0.63,1.302-1.354,1.639-2.173c0.336-0.819,0.504-1.648,0.504-2.489c0-1.722-0.389-2.992-1.166-3.812
			c-0.777-0.819-1.628-1.396-2.551-1.732c-1.597-0.587-3.455-1.144-5.576-1.669c-2.121-0.524-4.735-1.207-7.843-2.047
			c-1.933-0.504-3.539-1.166-4.82-1.984c-1.281-0.819-2.299-1.733-3.055-2.741c-0.757-1.008-1.292-2.079-1.606-3.213
			c-0.315-1.134-0.473-2.289-0.473-3.465c0-2.268,0.473-4.23,1.417-5.89c0.945-1.659,2.194-3.034,3.749-4.126
			c1.553-1.092,3.317-1.9,5.292-2.426c1.974-0.524,3.969-0.788,5.984-0.788c2.352,0,4.567,0.305,6.646,0.914
			c2.079,0.609,3.906,1.523,5.481,2.741c1.575,1.219,2.824,2.72,3.748,4.504c0.924,1.786,1.387,3.854,1.387,6.206h-6.875
			c-0.55,0-1.105-0.438-1.235-0.972c0,0-0.962-3.973-2.726-5.17c-1.765-1.197-4.012-1.795-6.741-1.795
			c-0.925,0-1.869,0.094-2.835,0.284c-0.967,0.189-1.849,0.504-2.646,0.945s-1.46,1.04-1.984,1.795
			c-0.525,0.756-0.787,1.701-0.787,2.835c0,1.597,0.493,2.846,1.48,3.749c0.986,0.904,2.277,1.586,3.874,2.047
			c0.168,0.042,0.829,0.221,1.984,0.536s2.446,0.662,3.875,1.04c1.427,0.378,2.824,0.746,4.189,1.103
			c1.364,0.357,2.341,0.62,2.93,0.788c1.47,0.462,2.75,1.092,3.843,1.89c1.092,0.798,2.005,1.712,2.74,2.741
			c0.734,1.03,1.281,2.132,1.639,3.308c0.355,1.176,0.535,2.353,0.535,3.528c0,2.52-0.515,4.673-1.544,6.458
			c-1.029,1.786-2.384,3.245-4.063,4.378c-1.68,1.134-3.591,1.964-5.732,2.489c-2.143,0.524-4.326,0.787-6.553,0.787
			c-2.562,0-4.977-0.315-7.244-0.945c-2.269-0.63-4.243-1.596-5.923-2.898c-1.68-1.301-3.023-2.971-4.031-5.008
			c-1.008-2.037-1.534-4.442-1.575-7.214H281.474z"/>
	</g>
	<g>
		<path fill="#242D26" d="M318.313,16.673c0-0.55,0.45-1,1-1h5.183c0.55,0,1,0.45,1,1v42.982c0,0.55-0.45,1-1,1h-5.183
			c-0.55,0-1-0.45-1-1V16.673z"/>
		<path fill="none" stroke="#242D25" stroke-width="2" stroke-miterlimit="10" d="M318.313,16.673c0-0.55,0.45-1,1-1h5.183
			c0.55,0,1,0.45,1,1v42.982c0,0.55-0.45,1-1,1h-5.183c-0.55,0-1-0.45-1-1V16.673z"/>
	</g>
	<g>
		<path fill="#242D26" d="M362.91,59.655c0,0.55-0.45,1-1,1h-5.056c-0.55,0-1-0.45-1-1v-2.536c0-0.55-0.028-1-0.062-1
			c-0.035,0-0.332,0.361-0.66,0.802c0,0-1.599,2.149-3.341,3.135c-1.743,0.986-3.519,1.48-5.323,1.48
			c-4.284,0-7.382-1.06-9.293-3.181c-1.912-2.121-2.866-5.324-2.866-9.608V29.084c0-0.55,0.45-1,1-1h5.182c0.55,0,1,0.45,1,1v17.971
			c0,0.55,0.05,1.447,0.111,1.994c0,0,0.435,3.879,1.526,5.055c1.092,1.176,2.625,1.764,4.6,1.764c1.512,0,2.771-0.23,3.779-0.693
			c1.009-0.462,1.827-1.081,2.457-1.858c0.631-0.777,1.081-1.711,1.354-2.804c0.273-1.092,0.41-2.268,0.41-3.528v-17.9
			c0-0.55,0.45-1,1-1h5.182c0.55,0,1,0.45,1,1V59.655z"/>
		<path fill="none" stroke="#242D25" stroke-width="2" stroke-miterlimit="10" d="M362.91,59.655c0,0.55-0.45,1-1,1h-5.056
			c-0.55,0-1-0.45-1-1v-2.536c0-0.55-0.028-1-0.062-1c-0.035,0-0.332,0.361-0.66,0.802c0,0-1.599,2.149-3.341,3.135
			c-1.743,0.986-3.519,1.48-5.323,1.48c-4.284,0-7.382-1.06-9.293-3.181c-1.912-2.121-2.866-5.324-2.866-9.608V29.084
			c0-0.55,0.45-1,1-1h5.182c0.55,0,1,0.45,1,1v17.971c0,0.55,0.05,1.447,0.111,1.994c0,0,0.435,3.879,1.526,5.055
			c1.092,1.176,2.625,1.764,4.6,1.764c1.512,0,2.771-0.23,3.779-0.693c1.009-0.462,1.827-1.081,2.457-1.858
			c0.631-0.777,1.081-1.711,1.354-2.804c0.273-1.092,0.41-2.268,0.41-3.528v-17.9c0-0.55,0.45-1,1-1h5.182c0.55,0,1,0.45,1,1V59.655
			z"/>
	</g>
	<g>
		<path fill="#242D26" d="M371.471,29.084c0-0.55,0.45-1,1-1h4.741c0.55,0,1,0.45,1,1v4.3c0,0.55,0.028,1,0.062,1
			c0.035,0,0.215-0.424,0.398-0.942c0,0,0.284-0.8,0.894-1.641c0.607-0.84,1.343-1.606,2.204-2.299
			c0.86-0.693,1.816-1.25,2.867-1.67c1.049-0.419,2.12-0.63,3.213-0.63c0.84,0,1.417,0.022,1.732,0.063
			c0.314,0.042,0.64,0.085,0.977,0.126v5.93c0,0.55-0.445,0.931-0.988,0.847c0,0-0.03-0.005-0.556-0.068s-1.039-0.094-1.543-0.094
			c-1.219,0-2.362,0.242-3.434,0.725c-1.071,0.483-2.006,1.197-2.804,2.142c-0.798,0.945-1.429,2.111-1.89,3.497
			c-0.463,1.386-0.693,2.983-0.693,4.788v14.498c0,0.55-0.45,1-1,1h-5.182c-0.55,0-1-0.45-1-1V29.084z"/>
		<path fill="none" stroke="#242D25" stroke-width="2" stroke-miterlimit="10" d="M371.471,29.084c0-0.55,0.45-1,1-1h4.741
			c0.55,0,1,0.45,1,1v4.3c0,0.55,0.028,1,0.062,1c0.035,0,0.215-0.424,0.398-0.942c0,0,0.284-0.8,0.894-1.641
			c0.607-0.84,1.343-1.606,2.204-2.299c0.86-0.693,1.816-1.25,2.867-1.67c1.049-0.419,2.12-0.63,3.213-0.63
			c0.84,0,1.417,0.022,1.732,0.063c0.314,0.042,0.64,0.085,0.977,0.126v5.93c0,0.55-0.445,0.931-0.988,0.847
			c0,0-0.03-0.005-0.556-0.068s-1.039-0.094-1.543-0.094c-1.219,0-2.362,0.242-3.434,0.725c-1.071,0.483-2.006,1.197-2.804,2.142
			c-0.798,0.945-1.429,2.111-1.89,3.497c-0.463,1.386-0.693,2.983-0.693,4.788v14.498c0,0.55-0.45,1-1,1h-5.182c-0.55,0-1-0.45-1-1
			V29.084z"/>
	</g>
	<g>
		<path fill="#242D26" d="M394.836,28.896c0-0.55,0.45-1,1-1h4.805c0.55,0,1,0.45,1,1v2.41c0,0.55,0.028,1,0.063,1
			c0.034,0,0.332-0.361,0.66-0.802c0,0,1.816-2.442,3.623-3.261c1.806-0.819,3.758-1.229,5.858-1.229
			c2.562,0,4.798,0.452,6.71,1.354c1.911,0.904,3.496,2.142,4.757,3.717c1.26,1.575,2.205,3.413,2.835,5.512
			c0.63,2.101,0.944,4.347,0.944,6.741c0,2.184-0.283,4.306-0.851,6.363c-0.566,2.059-1.428,3.875-2.583,5.45
			c-1.155,1.575-2.614,2.835-4.378,3.78c-1.764,0.945-3.843,1.417-6.237,1.417c-1.05,0-2.101-0.094-3.149-0.283
			c-1.051-0.189-2.059-0.494-3.024-0.914c-0.967-0.419-1.858-0.955-2.678-1.606c-0.818-0.651-1.502-1.417-2.047-2.3l0,0
			c-0.069,0-0.126,0.45-0.126,1v16.256c0,0.55-0.45,1-1,1h-5.183c-0.55,0-1-0.45-1-1V28.896z M419.91,44.212
			c0-1.47-0.189-2.898-0.567-4.284c-0.378-1.386-0.944-2.614-1.7-3.686c-0.757-1.071-1.701-1.931-2.835-2.583
			c-1.135-0.65-2.437-0.977-3.906-0.977c-3.024,0-5.303,1.05-6.836,3.15c-1.533,2.101-2.299,4.893-2.299,8.379
			c0,1.638,0.198,3.161,0.598,4.567c0.399,1.408,0.998,2.615,1.796,3.623s1.753,1.806,2.866,2.394
			c1.112,0.588,2.404,0.882,3.875,0.882c1.638,0,3.023-0.335,4.158-1.008c1.134-0.671,2.067-1.543,2.803-2.615
			c0.734-1.071,1.261-2.289,1.575-3.654C419.753,47.038,419.91,45.641,419.91,44.212z"/>
		<path fill="none" stroke="#242D25" stroke-width="2" stroke-miterlimit="10" d="M394.836,28.896c0-0.55,0.45-1,1-1h4.805
			c0.55,0,1,0.45,1,1v2.41c0,0.55,0.028,1,0.063,1c0.034,0,0.332-0.361,0.66-0.802c0,0,1.816-2.442,3.623-3.261
			c1.806-0.819,3.758-1.229,5.858-1.229c2.562,0,4.798,0.452,6.71,1.354c1.911,0.904,3.496,2.142,4.757,3.717
			c1.26,1.575,2.205,3.413,2.835,5.512c0.63,2.101,0.944,4.347,0.944,6.741c0,2.184-0.283,4.306-0.851,6.363
			c-0.566,2.059-1.428,3.875-2.583,5.45c-1.155,1.575-2.614,2.835-4.378,3.78c-1.764,0.945-3.843,1.417-6.237,1.417
			c-1.05,0-2.101-0.094-3.149-0.283c-1.051-0.189-2.059-0.494-3.024-0.914c-0.967-0.419-1.858-0.955-2.678-1.606
			c-0.818-0.651-1.502-1.417-2.047-2.3l0,0c-0.069,0-0.126,0.45-0.126,1v16.256c0,0.55-0.45,1-1,1h-5.183c-0.55,0-1-0.45-1-1V28.896
			z M419.91,44.212c0-1.47-0.189-2.898-0.567-4.284c-0.378-1.386-0.944-2.614-1.7-3.686c-0.757-1.071-1.701-1.931-2.835-2.583
			c-1.135-0.65-2.437-0.977-3.906-0.977c-3.024,0-5.303,1.05-6.836,3.15c-1.533,2.101-2.299,4.893-2.299,8.379
			c0,1.638,0.198,3.161,0.598,4.567c0.399,1.408,0.998,2.615,1.796,3.623s1.753,1.806,2.866,2.394
			c1.112,0.588,2.404,0.882,3.875,0.882c1.638,0,3.023-0.335,4.158-1.008c1.134-0.671,2.067-1.543,2.803-2.615
			c0.734-1.071,1.261-2.289,1.575-3.654C419.753,47.038,419.91,45.641,419.91,44.212z"/>
	</g>
</g>
<g id="Layer_2">
</g>
</svg>
